# xmcd
# 
# Track frame offsets:
#     150
#     19235
#     39030
#     56735
#     77113
#     94356
#     109561
#     128642
#     144598
#     160002
#     179843
#     198643
# 
# Disc length: 2822
# 
# Revision: 0
# Processed by: cddbd v1.5.2PL0 Copyright (c) Steve Scherf et al.
# Submitted via: BonkEnc v1.0
# 
DISCID=a10b040c
DTITLE=Céline Dion - The French Album
DYEAR=1995
DGENRE=Vocal
TTITLE0=Pour que tu m'aimes encore
TTITLE1=Le ballet
TTITLE2=Regarde-moi
TTITLE3=Je sais pas
TTITLE4=La mémoire d'Abraham
TTITLE5=Cherche encore
TTITLE6=Destin
TTITLE7=Les derniers seront les premiers
TTITLE8=J'irai où tu iras
TTITLE9=J'attendais
TTITLE10=Prière païenne
TTITLE11=Vole
EXTD=CD US 1995 (550 Music/Epic BK 67107) UPC 0074646710722
EXTT0=
EXTT1=
EXTT2=
EXTT3=
EXTT4=
EXTT5=
EXTT6=
EXTT7=
EXTT8=
EXTT9=
EXTT10=
EXTT11=
PLAYORDER=
